<?xml version="1.0" encoding="UTF-8"?>
<svg id="Layer_2" data-name="Layer 2" xmlns="http://www.w3.org/2000/svg" xmlns:xlink="http://www.w3.org/1999/xlink" viewBox="0 0 2875.74 717.94">
  <defs>
    <style>
      .cls-1 {
        fill: url(#linear-gradient-2);
      }

      .cls-1, .cls-2, .cls-3 {
        fill-rule: evenodd;
      }

      .cls-2 {
        fill: url(#linear-gradient);
      }

      .cls-3 {
        fill: url(#linear-gradient-3);
      }
    </style>
    <linearGradient id="linear-gradient" x1="294.48" y1="349.43" x2="483.85" y2="538.81" gradientUnits="userSpaceOnUse">
      <stop offset="0" stop-color="#f9a11b"/>
      <stop offset="1" stop-color="#ec1c2b"/>
    </linearGradient>
    <linearGradient id="linear-gradient-2" x1="93.35" y1="144.29" x2="531.53" y2="582.48" xlink:href="#linear-gradient"/>
    <linearGradient id="linear-gradient-3" x1="385.77" y1="167.11" x2="465.38" y2="246.72" xlink:href="#linear-gradient"/>
  </defs>
  <g id="Layer_1-2" data-name="Layer 1">
    <g>
      <path class="cls-2" d="m276.01,429.19c69.05-42.66,266.73-14.22,334.11-23.38,23.58-3.21,25.85-35.15.1-38.73-24.1-3.35-258.01-1.33-282.81,2.7-76.47,12.41-146.82,61.99-131.57,152.02,23.58,139.17,226.09,137.98,225.14,8.22-.31-41.7-25.56-76.01-67.82-76.18-58.77-.24-70.27,62.56-54.38,77.66,24.25,23.05,27.33-19.46,33.72-28.12,13.26-17.97,39.84-10.64,46.59,9.66,28.5,85.69-121.08,105.83-143.73,10.67-10.94-45.97,14.23-78.2,40.65-94.53Z"/>
      <path class="cls-1" d="m210.24,213.36c-78.65,20.96-123.72,57.45-157.17,108.57-16.81,25.69-31,57.42-41.17,91.79-3.82,12.89-11.16,40-11.86,52.83-1.35,24.83,25.29,28.8,35.27,14.78,3.85-5.41,10.56-42.06,13.27-51.66,64.91-230.07,261.26-172.06,281.47-184.72,10.13-6.35,18.81-31.89-15.02-36.44-21.33-2.87-43.78-.1-64.35-2.38l.07-163.07c1.8-.45,2.98-1.76,3.45-1.01.46.75,1.79-.76,2.44-.89,14.46-2.94,37.11,2.92,51.38,6.05,121.02,26.53,210.29,96.03,262.33,213.3,16.13,36.35.39,26.46-96.01,26.46-28.2,0-56.41.06-84.62.06h0s-.4,0-.4,0c-16.95,0-33.89-.01-50.84-.08-1.99,0-3.97.16-5.92.45h0c-109.44.72-253.86,78.27-243.28,240.42,14.17,111.2,107.4,209.56,257.93,186.82,27.55-2.97,91.45-23.58,93.26-46.95,3.18-40.91-38.76-2.87-101.88,3.94-132.58,19.59-199.43-71.1-206.61-158.92.02-97.73,72.09-172.87,195.77-185.73,1.69-.18,3.31-.33,4.89-.46,4.06-.15,8.06-.33,11.76-.34,45.28-.06,90.56,0,135.83,0,73.23,0,181.81,20.72,113.59-110.04C529.13,92.1,407.73,13.59,266.59.4c-2.58-.24-5.05-.37-7.4-.4h-.4c-73.72-.5-39.68,102.61-48.54,213.36Z"/>
      <path class="cls-3" d="m435.71,261.79c27.52-4.53,50.54-30.06,45.37-64.85-4.01-27.01-32.13-50.91-63.41-45.77-72.16,11.85-57.8,123.11,18.04,110.62Zm-13.27-79.53c13.74-2.26,26.09,8.24,27.85,20.1,2.27,15.28-7.84,26.49-19.93,28.48-33.31,5.48-39.62-43.38-7.92-48.59Z"/>
    </g>
    <g>
      <path d="m938.91,200.7c7.47,0,13.82,2.62,19.07,7.87,5.08,5.24,7.63,11.6,7.63,19.07s-2.54,13.59-7.63,18.83c-5.24,5.24-11.6,7.87-19.07,7.87h-47.91v236.21c0,7.31-2.62,13.59-7.87,18.83-5.24,5.24-11.52,7.87-18.83,7.87s-13.82-2.62-19.07-7.87-7.87-11.52-7.87-18.83v-236.21h-47.91c-7.31,0-13.59-2.62-18.83-7.87-5.24-5.24-7.87-11.52-7.87-18.83s2.62-13.83,7.87-19.07c5.24-5.24,11.52-7.87,18.83-7.87h149.45Z"/>
      <path d="m1082.87,517.23c-27.49,0-51.01-9.77-70.55-29.32-19.54-19.54-29.32-43.06-29.32-70.55v-106.3c0-7.15,2.54-13.19,7.63-18.11,4.92-5.08,10.96-7.63,18.12-7.63s13.27,2.54,18.35,7.63c5.08,4.93,7.63,10.96,7.63,18.11v106.3c0,13.19,4.69,24.55,14.06,34.08,9.53,9.38,20.89,14.06,34.08,14.06h.71c13.35,0,24.79-4.69,34.32-14.06,9.37-9.53,14.06-20.89,14.06-34.08v-106.3c0-7.15,2.54-13.19,7.63-18.11,5.08-5.08,11.2-7.63,18.35-7.63s13.03,2.54,18.11,7.63c5.08,4.93,7.63,10.96,7.63,18.11v106.3c0,27.49-9.77,51.01-29.32,70.55s-43.14,29.32-70.79,29.32h-.71Z"/>
      <path d="m1313.11,517.23c-27.49,0-50.93-9.77-70.31-29.32-19.54-19.38-29.32-42.82-29.32-70.31v-31.94c0-27.33,9.77-50.77,29.32-70.31,19.38-19.54,42.82-29.32,70.31-29.32h.71c21.61,0,41.23,6.44,58.87,19.31,5.72,4.29,9.06,9.93,10.01,16.92,1.11,6.99-.4,13.35-4.53,19.07-4.29,5.72-9.93,9.14-16.92,10.25-6.99,1.11-13.35-.39-19.07-4.53-8.58-6.35-18.04-9.53-28.36-9.53h-.71c-13.35,0-24.71,4.77-34.08,14.3-9.38,9.38-14.06,20.66-14.06,33.85v31.94c0,13.35,4.69,24.71,14.06,34.08,9.37,9.38,20.74,14.06,34.08,14.06h.71c10.33,0,19.78-3.1,28.36-9.3,5.72-4.13,12.07-5.72,19.07-4.77,6.99,1.11,12.63,4.53,16.92,10.25,4.13,5.72,5.64,12.08,4.53,19.07-.95,7.15-4.29,12.79-10.01,16.92-17.64,12.87-37.26,19.31-58.87,19.31h-.71Z"/>
      <path d="m1603.19,491.49c0,7.15-2.54,13.19-7.63,18.12-4.93,5.09-10.96,7.63-18.11,7.63-10.49,0-18.12-4.69-22.88-14.06-15.73,9.38-32.81,14.06-51.25,14.06h-.72c-27.49,0-50.93-9.77-70.31-29.32-19.54-19.38-29.32-42.82-29.32-70.31v-31.94c0-27.49,9.77-51.01,29.32-70.55,19.38-19.54,42.82-29.32,70.31-29.32h.72c27.49,0,51.01,9.77,70.55,29.32s29.32,43.06,29.32,70.55v105.83Zm-99.87-25.74c13.35,0,24.71-4.69,34.08-14.06,9.53-9.53,14.3-20.89,14.3-34.08v-31.94c0-13.35-4.77-24.71-14.3-34.08-9.38-9.53-20.74-14.3-34.08-14.3h-.72c-13.19,0-24.55,4.77-34.08,14.3-9.38,9.38-14.06,20.74-14.06,34.08v31.94c0,13.19,4.69,24.55,14.06,34.08,9.53,9.38,20.89,14.06,34.08,14.06h.72Z"/>
      <path d="m1878.48,286.03c26.54,0,48.86,9.3,66.98,27.89,18.27,18.43,27.41,41.08,27.41,67.93v109.64c0,7.15-2.54,13.19-7.63,18.12-4.93,5.09-10.96,7.63-18.11,7.63s-13.19-2.54-18.11-7.63c-5.09-4.92-7.63-10.96-7.63-18.12v-109.64c0-12.87-4.05-23.44-12.16-31.7-8.1-8.42-18.35-12.63-30.75-12.63h-.72c-12.39,0-22.64,4.21-30.75,12.63-8.1,8.26-12.16,18.83-12.16,31.7v109.64c0,7.15-2.47,13.19-7.39,18.12-5.09,5.09-11.12,7.63-18.12,7.63s-13.27-2.54-18.35-7.63c-4.93-4.92-7.39-10.96-7.39-18.12v-109.64c0-12.87-4.05-23.44-12.16-31.7-8.1-8.42-18.35-12.63-30.75-12.63h-.71c-12.39,0-22.64,4.21-30.75,12.63-8.1,8.26-12.16,18.83-12.16,31.7v109.64c0,7.15-2.54,13.19-7.63,18.12-4.93,5.09-10.96,7.63-18.11,7.63s-13.19-2.54-18.12-7.63c-5.09-4.92-7.63-10.96-7.63-18.12v-109.64c0-26.85,9.14-49.5,27.41-67.93,18.11-18.59,40.44-27.89,66.98-27.89h.71c27.33,0,50.21,9.85,68.64,29.55,18.27-19.7,41.07-29.55,68.41-29.55h.72Z"/>
      <path d="m2034.84,201.89c7.31,0,13.5,2.54,18.59,7.63,5.24,5.24,7.87,11.52,7.87,18.83s-2.62,13.59-7.87,18.83c-5.09,5.09-11.28,7.63-18.59,7.63s-13.75-2.54-18.83-7.63c-5.24-5.24-7.87-11.52-7.87-18.83s2.62-13.59,7.87-18.83c5.08-5.08,11.36-7.63,18.83-7.63Zm0,315.34c7.31,0,13.5-2.62,18.59-7.87,5.24-5.08,7.87-11.36,7.87-18.83v-185.67c0-7.31-2.62-13.59-7.87-18.83-5.09-5.24-11.28-7.87-18.59-7.87s-13.75,2.62-18.83,7.87c-5.24,5.24-7.87,11.52-7.87,18.83v185.67c0,7.47,2.62,13.75,7.87,18.83,5.08,5.24,11.36,7.87,18.83,7.87Z"/>
      <path d="m2159.73,517.23c-20.02,0-37.03-7.07-51.01-21.21-5.09-4.92-7.63-10.96-7.63-18.12s2.54-13.19,7.63-18.11c4.92-5.08,10.96-7.63,18.11-7.63s13.19,2.54,18.11,7.63c4.13,3.97,9.06,5.96,14.78,5.96h55.54c5.72,0,10.64-1.99,14.78-5.96,3.97-4.13,5.96-9.06,5.96-14.78s-1.99-10.57-5.96-14.54c-4.13-4.13-9.06-6.2-14.78-6.2h-47.91c-19.07,0-35.36-6.75-48.86-20.26-13.51-13.5-20.26-29.79-20.26-48.86s6.75-35.35,20.26-48.86,29.79-20.26,48.86-20.26h51.01c19.07,0,35.35,6.76,48.86,20.26,5.08,5.09,7.63,11.2,7.63,18.35s-2.54,13.03-7.63,18.12c-4.93,4.93-10.96,7.39-18.12,7.39s-13.19-2.46-18.11-7.39c-3.5-3.49-7.71-5.24-12.63-5.24h-51.01c-4.93,0-9.06,1.75-12.39,5.24-3.5,3.5-5.24,7.63-5.24,12.39s1.75,9.14,5.24,12.63c3.34,3.5,7.47,5.24,12.39,5.24h47.91c20.02,0,37.02,6.99,51.01,20.98,14.14,14.14,21.21,31.15,21.21,51.01s-7.07,36.87-21.21,51.01c-13.98,14.14-30.99,21.21-51.01,21.21h-55.54Z"/>
      <path d="m2407.14,517.23c-27.49,0-51.01-9.77-70.55-29.32-19.54-19.54-29.32-43.06-29.32-70.55v-32.18c0-28.44,8.98-52.2,26.93-71.27,18.11-19.07,40.6-28.6,67.45-28.6h.71c27.01,0,49.5,9.53,67.45,28.6,17.95,19.07,26.93,42.83,26.93,71.27v15.97c0,7.15-2.47,13.27-7.39,18.35-5.09,5.09-11.2,7.63-18.35,7.63h-111.07c2.22,11.12,7.78,20.26,16.68,27.41,8.9,7.31,19.07,10.96,30.51,10.96h.72c16.21,0,29.16-6.51,38.85-19.54,4.29-5.72,9.93-9.14,16.92-10.25,7.15-.95,13.59.64,19.31,4.77,5.72,4.29,9.06,10.01,10.01,17.16,1.11,6.99-.48,13.35-4.77,19.07-9.38,12.71-21.13,22.64-35.28,29.79-14.3,7.15-29.32,10.73-45.05,10.73h-.72Zm37.18-141.82c-1.75-10.96-5.96-19.86-12.63-26.7-7.63-7.78-17.4-11.68-29.32-11.68h-.71c-11.92,0-21.69,3.9-29.32,11.68-6.67,6.83-10.89,15.73-12.63,26.7h84.61Z"/>
      <path d="m2630.47,466.94c6.99,0,12.95,2.47,17.88,7.39,4.92,4.93,7.39,10.81,7.39,17.64s-2.47,12.95-7.39,17.88c-4.93,4.93-10.89,7.39-17.88,7.39h-13.82c-26.86,0-49.81-9.53-68.88-28.6-19.07-19.07-28.6-42.03-28.6-68.88v-193.06c0-6.99,2.46-12.95,7.39-17.88,4.92-4.77,10.88-7.15,17.88-7.15s12.71,2.38,17.64,7.15c4.92,4.93,7.39,10.89,7.39,17.88v62.69h33.37c6.99,0,12.95,2.46,17.88,7.39,4.92,4.93,7.39,10.89,7.39,17.88s-2.47,12.71-7.39,17.64-10.89,7.39-17.88,7.39h-33.37v80.08c0,13.03,4.61,24.16,13.83,33.37,9.21,9.22,20.34,13.82,33.37,13.82h13.82Z"/>
      <path d="m2875.74,491.49c0,7.15-2.54,13.19-7.63,18.12-4.93,5.09-10.96,7.63-18.11,7.63-10.49,0-18.12-4.69-22.88-14.06-15.73,9.38-32.81,14.06-51.25,14.06h-.72c-27.49,0-50.93-9.77-70.31-29.32-19.54-19.38-29.32-42.82-29.32-70.31v-31.94c0-27.49,9.77-51.01,29.32-70.55,19.38-19.54,42.82-29.32,70.31-29.32h.72c27.49,0,51.01,9.77,70.55,29.32s29.32,43.06,29.32,70.55v105.83Zm-99.87-25.74c13.35,0,24.71-4.69,34.08-14.06,9.53-9.53,14.3-20.89,14.3-34.08v-31.94c0-13.35-4.77-24.71-14.3-34.08-9.38-9.53-20.74-14.3-34.08-14.3h-.72c-13.19,0-24.55,4.77-34.08,14.3-9.38,9.38-14.06,20.74-14.06,34.08v31.94c0,13.19,4.69,24.55,14.06,34.08,9.53,9.38,20.89,14.06,34.08,14.06h.72Z"/>
    </g>
  </g>
</svg>